<svg xmlns="http://www.w3.org/2000/svg" viewBox="0 0 224.56 224.56"><defs><style>.cls-1{fill:#2191fb;}.cls-2{fill:#fff;}</style></defs><title>Asset 21</title><g id="Layer_2" data-name="Layer 2"><g id="Header"><circle class="cls-1" cx="112.28" cy="112.28" r="112.28"/><path class="cls-2" d="M61.54,133.49a4.41,4.41,0,0,1-1.77-3.68l.07-18.06a7.36,7.36,0,0,1,.44-2.76,9.31,9.31,0,0,1,1.33-2.55L62,106c.2-.25.49-.55.85-.92a42.35,42.35,0,0,1,13.9-8.65,84,84,0,0,1,14.72-4.3,101.08,101.08,0,0,1,20.85-1.77,106.44,106.44,0,0,1,16.9,1.09,91.39,91.39,0,0,1,13,2.9,60.77,60.77,0,0,1,9.48,3.75,50.24,50.24,0,0,1,6.4,3.81,24.8,24.8,0,0,1,3.65,3.1c.77.87,1.2,1.34,1.29,1.43a9.24,9.24,0,0,1,1.33,2.56,7.16,7.16,0,0,1,.44,2.76v18.13a4.27,4.27,0,0,1-1.22,3.13,3.66,3.66,0,0,1-2.08,1.06,6.6,6.6,0,0,1-2.42-.11l-21.13-6.54a4.67,4.67,0,0,1-2.72-2,6,6,0,0,1-1-3.34v-6.68a1.57,1.57,0,0,0-.21-.68,2.07,2.07,0,0,0-.41-.61,17,17,0,0,0-4.49-2,43.23,43.23,0,0,0-6.51-1.46,62.32,62.32,0,0,0-10.26-.58,63.47,63.47,0,0,0-10.32.58A44.46,44.46,0,0,0,95.45,112,14.94,14.94,0,0,0,92,113.45l-1,.68a2.87,2.87,0,0,0-.34.55,1.68,1.68,0,0,0-.2.68l.07,7.84a6,6,0,0,1-1.78,4,5,5,0,0,1-2.24,1.43l-.07.07L65.5,134A4.86,4.86,0,0,1,61.54,133.49Z"/></g></g></svg>