<svg xmlns="http://www.w3.org/2000/svg" viewBox="0 0 224.56 224.56"><defs><style>.cls-1{fill:#2191fb;}.cls-2{fill:#fff;}</style></defs><title>Asset 20</title><g id="Layer_2" data-name="Layer 2"><g id="Header"><circle class="cls-1" cx="112.28" cy="112.28" r="112.28"/><path class="cls-2" d="M157.75,138.59a4.39,4.39,0,0,1-1.34,3.86l-12.82,12.72a7,7,0,0,1-2.27,1.63,9.36,9.36,0,0,1-2.74.87l-.58.05c-.32,0-.74.05-1.25.05a44.24,44.24,0,0,1-5.93-.63,45,45,0,0,1-10-3.08,84.79,84.79,0,0,1-13.45-7.37,100.29,100.29,0,0,1-16-13.5,104.49,104.49,0,0,1-11.18-12.72,89,89,0,0,1-7.13-11.22,60.79,60.79,0,0,1-4-9.35,49.65,49.65,0,0,1-1.83-7.23,24.32,24.32,0,0,1-.39-4.77c.07-1.16.1-1.8.1-1.93a9.63,9.63,0,0,1,.86-2.74A7.22,7.22,0,0,1,69.38,81L82.2,68.14a4.25,4.25,0,0,1,3.08-1.35,3.61,3.61,0,0,1,2.22.73,6.66,6.66,0,0,1,1.64,1.78L99.45,88.86a4.69,4.69,0,0,1,.48,3.38,5.9,5.9,0,0,1-1.64,3.08L93.57,100a1.66,1.66,0,0,0-.34.63,2.57,2.57,0,0,0-.14.72A17.9,17.9,0,0,0,94.82,106a43.48,43.48,0,0,0,3.57,5.64,63.75,63.75,0,0,0,6.84,7.66,64.24,64.24,0,0,0,7.71,6.89,44.17,44.17,0,0,0,5.64,3.61,15.12,15.12,0,0,0,3.47,1.4l1.2.24a2.23,2.23,0,0,0,.63-.15,1.53,1.53,0,0,0,.63-.33l5.49-5.59a5.91,5.91,0,0,1,4.05-1.54,5.09,5.09,0,0,1,2.6.57h.1l18.6,11A4.86,4.86,0,0,1,157.75,138.59Z"/></g></g></svg>